<svg width="345" height="363" viewBox="0 0 345 363" fill="none" xmlns="http://www.w3.org/2000/svg">
<path d="M167.831 0L167.071 0.759414H165.552L3.79707 162.515V163.274L1.51883 165.552V167.071L0.759414 167.831V169.349L0 170.109V352.368L0.759414 353.128V354.646L1.51883 355.406V356.925L2.27824 357.684V358.444L6.07531 362.241H6.83473L7.59414 363H31.8954L32.6548 362.241H33.4142L34.9331 360.722V359.962L36.4519 358.444V182.259L37.2113 181.5V180.741L165.552 52.3996H166.312V51.6402L167.831 50.1213H168.59L170.109 48.6025H174.665L176.184 50.1213H176.944L210.358 83.5356V84.295H211.117L215.674 88.8515V89.6109L216.433 90.3703H217.192L218.711 91.8891V92.6485L219.471 93.408H220.23L220.99 94.1674V94.9268L306.044 179.981V180.741L306.803 181.5V314.397L306.044 315.157V316.676L305.285 317.435V318.954L302.247 321.992H301.487L299.969 323.51H298.45L297.69 324.27H293.893L293.134 325.029H130.619L129.86 324.27H126.063L125.303 323.51H124.544L123.785 322.751H122.266L120.747 321.232H119.987L119.228 320.473V319.713L118.469 318.954V318.195L117.709 317.435V315.916L116.95 315.157V312.119L116.19 311.36V238.456L116.95 237.697V235.418L117.709 234.659V233.9L118.469 233.14V232.381L119.228 231.621V230.862L124.544 225.546H125.303L126.063 224.787H126.822L127.582 224.027H129.1L129.86 223.268H208.839L210.358 224.787H211.117L211.877 225.546V226.305L212.636 227.065V227.824L213.395 228.584V274.149L212.636 274.908V276.427L209.598 279.464H161.755L160.996 280.224H160.236V287.059L160.996 287.818V290.096L161.755 290.856V291.615L162.515 292.374V293.134L164.793 295.412H165.552L166.312 296.172H228.584L229.343 295.412H232.381L233.14 294.653H234.659L236.178 293.134H236.937L237.697 292.374H238.456L241.494 289.337H242.253V288.577L244.531 286.299V285.54L245.291 284.78V284.021L246.05 283.262V282.502L246.81 281.743V280.983L247.569 280.224V277.946L248.328 277.186V215.674L247.569 214.914V212.636L246.81 211.877V210.358L246.05 209.598V208.839L245.291 208.08V206.561L243.772 205.042V204.282L242.253 202.764V202.004L239.975 199.726V198.967L239.215 198.207H238.456L236.937 196.688V195.929H236.178L233.9 193.651V192.891H233.14L230.862 190.613V189.854H230.103L227.065 186.816H226.305L225.546 186.056H224.027L223.268 185.297H119.987L82.7762 220.23V220.99L81.2573 222.508V224.027L80.4979 224.787V329.586L81.2573 330.345V334.902L82.0167 335.661V338.699L82.7762 339.458V340.977L83.5356 341.736V343.255L84.295 344.015V344.774L85.0544 345.533V346.293L85.8138 347.052V347.812L88.8515 350.849V351.609L92.6485 355.406H93.408L94.1674 356.165V356.925H94.9268L95.6862 357.684H96.4456L98.7239 359.962H100.243L101.002 360.722H102.521L103.28 361.481H104.04L104.799 362.241H107.837L108.596 363H323.51L324.27 362.241H326.548L327.308 361.481H328.067L328.826 360.722H329.586L330.345 359.962H331.864L334.902 356.925H335.661V356.165L338.699 353.128V352.368L340.218 350.849V350.09L340.977 349.331V348.571L341.736 347.812V346.293L342.496 345.533V344.774L343.255 344.015V340.218L344.015 339.458V169.349L343.255 168.59V167.071L341.736 165.552V164.793L340.218 163.274V162.515L292.374 114.672H291.615L290.856 113.912V113.153L267.314 89.6109V88.8515H266.554L258.96 81.2573V80.4979H258.201L255.923 78.2197V77.4603H255.163L250.607 72.9038V72.1444H249.847L247.569 69.8661V69.1067H246.81L239.215 61.5126V60.7531H238.456L236.178 58.4749V57.7155H235.418L230.862 53.159V52.3996H230.103L227.824 50.1213V49.3619H227.065L224.787 47.0837V46.3243H224.027L222.508 44.8054V44.046H221.749L219.471 41.7678V41.0084H218.711L216.433 38.7301V37.9707H215.674L214.155 36.4519V35.6925L213.395 34.9331H212.636L211.117 33.4142V32.6548H210.358L208.08 30.3766V29.6172H207.32L205.042 27.3389V26.5795H204.282L202.764 25.0607V24.3013H202.004L199.726 22.023V21.2636H198.967L196.688 18.9854V18.2259H195.929L194.41 16.7071V15.9477L193.651 15.1883H192.891L191.372 13.6695V12.91H190.613L188.335 10.6318V9.87239H187.575L185.297 7.59414V6.83473H184.538L183.019 5.3159V4.55649L182.259 3.79707H181.5L179.981 2.27824V1.51883H179.222L178.462 0.759414H176.944L176.184 0" fill="url(#paint0_linear_37_288)"/>
<defs>
<linearGradient id="paint0_linear_37_288" x1="172.007" y1="0" x2="172.007" y2="363" gradientUnits="userSpaceOnUse">
<stop stop-color="#F3C443"/>
<stop offset="1" stop-color="#D39011"/>
</linearGradient>
</defs>
</svg>
