<svg width="571" height="180" viewBox="0 0 571 180" fill="none" xmlns="http://www.w3.org/2000/svg">
<path d="M87.8146 0L87.4172 0.376569H86.6225L1.98675 80.5858V80.9623L0.794702 82.0921V82.8452L0.397351 83.2218V83.9749L0 84.3515V174.728L0.397351 175.105V175.858L0.794702 176.234V176.987L1.19205 177.364V177.741L3.17881 179.623H3.57616L3.97351 180H16.6887L17.0861 179.623H17.4834L18.2781 178.87V178.494L19.0728 177.741V90.3766L19.4702 90V89.6234L86.6225 25.9833H87.0199V25.6067L87.8146 24.8536H88.2119L89.0066 24.1004H91.3907L92.1854 24.8536H92.5828L110.066 41.4226V41.7992H110.464L112.848 44.0586V44.4351L113.245 44.8117H113.642L114.437 45.5649V45.9414L114.834 46.318H115.232L115.629 46.6946V47.0711L160.132 89.2469V89.6234L160.53 90V155.9L160.132 156.276V157.029L159.735 157.406V158.159L158.146 159.665H157.748L156.954 160.418H156.159L155.762 160.795H153.775L153.377 161.172H68.3444L67.947 160.795H65.9603L65.5629 160.418H65.1656L64.7682 160.042H63.9735L63.1788 159.289H62.7815L62.3841 158.912V158.536L61.9868 158.159V157.782L61.5894 157.406V156.653L61.1921 156.276V154.77L60.7947 154.393V118.243L61.1921 117.866V116.736L61.5894 116.36V115.983L61.9868 115.607V115.23L62.3841 114.854V114.477L65.1656 111.841H65.5629L65.9603 111.464H66.3576L66.755 111.088H67.5497L67.947 110.711H109.272L110.066 111.464H110.464L110.861 111.841V112.218L111.258 112.594V112.971L111.656 113.347V135.941L111.258 136.318V137.071L109.669 138.577H84.6358L84.2384 138.954H83.8411V142.343L84.2384 142.72V143.849L84.6358 144.226V144.603L85.0331 144.979V145.356L86.2252 146.485H86.6225L87.0199 146.862H119.603L120 146.485H121.589L121.987 146.109H122.781L123.576 145.356H123.974L124.371 144.979H124.768L126.358 143.473H126.755V143.096L127.947 141.967V141.59L128.344 141.213V140.837L128.742 140.46V140.084L129.139 139.707V139.331L129.536 138.954V137.824L129.934 137.448V106.946L129.536 106.569V105.439L129.139 105.063V104.31L128.742 103.933V103.556L128.344 103.18V102.427L127.55 101.674V101.297L126.755 100.544V100.167L125.563 99.0377V98.6611L125.166 98.2845H124.768L123.974 97.5314V97.1548H123.576L122.384 96.0251V95.6485H121.987L120.795 94.5188V94.1423H120.397L118.808 92.636H118.411L118.013 92.2594H117.219L116.821 91.8828H62.7815L43.3113 109.205V109.582L42.5166 110.335V111.088L42.1192 111.464V163.431L42.5166 163.808V166.067L42.9139 166.444V167.95L43.3113 168.326V169.079L43.7086 169.456V170.209L44.106 170.586V170.962L44.5033 171.339V171.715L44.9007 172.092V172.469L46.4901 173.975V174.351L48.4768 176.234H48.8742L49.2715 176.611V176.987H49.6689L50.0662 177.364H50.4636L51.6556 178.494H52.4503L52.8477 178.87H53.6424L54.0397 179.247H54.4371L54.8344 179.623H56.4238L56.8212 180H169.272L169.669 179.623H170.861L171.258 179.247H171.656L172.053 178.87H172.45L172.848 178.494H173.642L175.232 176.987H175.629V176.611L177.219 175.105V174.728L178.013 173.975V173.598L178.411 173.222V172.845L178.808 172.469V171.715L179.205 171.339V170.962L179.603 170.586V168.703L180 168.326V83.9749L179.603 83.5983V82.8452L178.808 82.0921V81.7155L178.013 80.9623V80.5858L152.98 56.8619H152.583L152.185 56.4854V56.1088L139.868 44.4351V44.0586H139.47L135.497 40.2929V39.9163H135.099L133.907 38.7866V38.41H133.51L131.126 36.1506V35.7741H130.728L129.536 34.6444V34.2678H129.139L125.166 30.5021V30.1255H124.768L123.576 28.9958V28.6192H123.179L120.795 26.3598V25.9833H120.397L119.205 24.8536V24.477H118.808L117.616 23.3473V22.9707H117.219L116.424 22.2176V21.841H116.026L114.834 20.7113V20.3347H114.437L113.245 19.205V18.8285H112.848L112.053 18.0753V17.6987L111.656 17.3222H111.258L110.464 16.569V16.1925H110.066L108.874 15.0628V14.6862H108.477L107.285 13.5565V13.1799H106.887L106.093 12.4268V12.0502H105.695L104.503 10.9205V10.5439H104.106L102.914 9.41423V9.03766H102.517L101.722 8.28452V7.90795L101.325 7.53138H100.927L100.132 6.77824V6.40167H99.7351L98.543 5.27197V4.8954H98.1457L96.9536 3.76569V3.38912H96.5563L95.7616 2.63598V2.25941L95.3642 1.88285H94.9669L94.1722 1.12971V0.753138H93.7748L93.3775 0.376569H92.5828L92.1854 0" fill="url(#paint0_linear_733_591)"/>
<path d="M209.523 111.455H223.455L235.273 140.273H235.818L247.636 111.455H261.568V158H250.614V129.409H250.227L239.045 157.705H232.045L220.864 129.25H220.477V158H209.523V111.455ZM275.381 171.091C274.047 171.091 272.79 170.985 271.608 170.773C270.426 170.576 269.411 170.311 268.562 169.977L271.017 161.909C272.108 162.273 273.093 162.485 273.972 162.545C274.866 162.606 275.631 162.462 276.267 162.114C276.919 161.78 277.419 161.182 277.767 160.318L278.199 159.273L265.79 123.091H277.426L283.858 148H284.222L290.744 123.091H302.449L289.29 161.341C288.653 163.25 287.752 164.932 286.585 166.386C285.434 167.856 283.941 169.008 282.108 169.841C280.29 170.674 278.047 171.091 275.381 171.091ZM330.528 158H318.438L334.142 111.455H349.119L364.824 158H352.733L341.801 123.182H341.438L330.528 158ZM328.915 139.682H354.188V148.227H328.915V139.682ZM383.92 171.818C380.602 171.818 377.761 171.356 375.398 170.432C373.034 169.508 371.178 168.242 369.83 166.636C368.481 165.03 367.67 163.212 367.398 161.182L377.92 160.591C378.117 161.303 378.481 161.924 379.011 162.455C379.557 162.985 380.261 163.394 381.125 163.682C382.004 163.97 383.034 164.114 384.216 164.114C386.08 164.114 387.617 163.659 388.83 162.75C390.057 161.856 390.67 160.288 390.67 158.045V151.909H390.284C389.845 152.985 389.178 153.947 388.284 154.795C387.39 155.644 386.277 156.311 384.943 156.795C383.625 157.28 382.11 157.523 380.398 157.523C377.852 157.523 375.519 156.932 373.398 155.75C371.292 154.553 369.602 152.705 368.33 150.205C367.072 147.689 366.443 144.455 366.443 140.5C366.443 136.424 367.095 133.068 368.398 130.432C369.701 127.78 371.405 125.818 373.511 124.545C375.633 123.273 377.913 122.636 380.352 122.636C382.186 122.636 383.754 122.955 385.057 123.591C386.375 124.212 387.458 125.015 388.307 126C389.155 126.985 389.799 128.008 390.239 129.068H390.557V123.091H401.625V158.136C401.625 161.091 400.883 163.583 399.398 165.614C397.913 167.644 395.837 169.182 393.17 170.227C390.504 171.288 387.42 171.818 383.92 171.818ZM384.261 149.432C385.61 149.432 386.761 149.076 387.716 148.364C388.67 147.652 389.405 146.629 389.92 145.295C390.436 143.962 390.693 142.364 390.693 140.5C390.693 138.606 390.436 136.977 389.92 135.614C389.42 134.235 388.686 133.174 387.716 132.432C386.761 131.689 385.61 131.318 384.261 131.318C382.883 131.318 381.716 131.697 380.761 132.455C379.807 133.212 379.08 134.28 378.58 135.659C378.095 137.023 377.852 138.636 377.852 140.5C377.852 142.364 378.102 143.962 378.602 145.295C379.102 146.629 379.822 147.652 380.761 148.364C381.716 149.076 382.883 149.432 384.261 149.432ZM425.028 158.659C421.377 158.659 418.225 157.939 415.574 156.5C412.938 155.045 410.907 152.977 409.483 150.295C408.074 147.598 407.369 144.394 407.369 140.682C407.369 137.076 408.081 133.924 409.506 131.227C410.93 128.515 412.938 126.409 415.528 124.909C418.119 123.394 421.172 122.636 424.688 122.636C427.172 122.636 429.445 123.023 431.506 123.795C433.566 124.568 435.347 125.712 436.847 127.227C438.347 128.742 439.513 130.614 440.347 132.841C441.18 135.053 441.597 137.591 441.597 140.455V143.227H411.256V136.773H431.256C431.241 135.591 430.96 134.538 430.415 133.614C429.869 132.689 429.119 131.97 428.165 131.455C427.225 130.924 426.142 130.659 424.915 130.659C423.672 130.659 422.559 130.939 421.574 131.5C420.589 132.045 419.809 132.795 419.233 133.75C418.657 134.689 418.354 135.758 418.324 136.955V143.523C418.324 144.947 418.604 146.197 419.165 147.273C419.725 148.333 420.521 149.159 421.551 149.75C422.581 150.341 423.809 150.636 425.233 150.636C426.218 150.636 427.112 150.5 427.915 150.227C428.718 149.955 429.407 149.553 429.983 149.023C430.559 148.492 430.991 147.841 431.278 147.068L441.483 147.364C441.059 149.652 440.127 151.644 438.688 153.341C437.263 155.023 435.392 156.333 433.074 157.273C430.756 158.197 428.074 158.659 425.028 158.659ZM458.386 138.091V158H447.273V123.091H457.841V129.5H458.227C459 127.364 460.318 125.689 462.182 124.477C464.045 123.25 466.265 122.636 468.841 122.636C471.295 122.636 473.424 123.189 475.227 124.295C477.045 125.386 478.455 126.917 479.455 128.886C480.47 130.841 480.97 133.129 480.955 135.75V158H469.841V137.932C469.856 135.992 469.364 134.477 468.364 133.386C467.379 132.295 466.008 131.75 464.25 131.75C463.083 131.75 462.053 132.008 461.159 132.523C460.28 133.023 459.598 133.742 459.114 134.682C458.644 135.621 458.402 136.758 458.386 138.091ZM507.54 123.091V131.273H485.517V123.091H507.54ZM490.131 114.727H501.244V147.023C501.244 147.705 501.35 148.258 501.562 148.682C501.79 149.091 502.116 149.386 502.54 149.568C502.964 149.735 503.472 149.818 504.062 149.818C504.487 149.818 504.934 149.78 505.403 149.705C505.888 149.614 506.252 149.538 506.494 149.477L508.176 157.5C507.646 157.652 506.896 157.841 505.926 158.068C504.972 158.295 503.828 158.439 502.494 158.5C499.888 158.621 497.653 158.318 495.79 157.591C493.941 156.848 492.525 155.697 491.54 154.136C490.57 152.576 490.1 150.614 490.131 148.25V114.727Z" fill="white" fill-opacity="0.99"/>
<defs>
<linearGradient id="paint0_linear_733_591" x1="90" y1="0" x2="90" y2="180" gradientUnits="userSpaceOnUse">
<stop stop-color="#F3C443"/>
<stop offset="1" stop-color="#D39011"/>
</linearGradient>
</defs>
</svg>
